<svg xmlns="http://www.w3.org/2000/svg" id="Capa_1" viewBox="0 0 23.86 30"><path id="Path_1" d="m11.93,21.78c-5.44,0-9.85-4.41-9.85-9.85,0-5.44,4.41-9.85,9.85-9.85,5.44,0,9.85,4.41,9.85,9.85h0c0,5.44-4.41,9.85-9.85,9.85m0,2.07c6.59,0,11.93-5.34,11.93-11.93S18.52,0,11.93,0,0,5.34,0,11.93c0,0,0,0,0,0,0,6.59,5.34,11.93,11.93,11.93" style="fill:#009cde;"/><path id="Path_2" d="m17.03,6.02c-3.26-2.83-8.2-2.47-11.03.79-1.06,1.22-1.71,2.74-1.87,4.34-.04.5.33.93.82.97.07,0,.15,0,.22,0,2.99-.42,5.75,1.66,6.17,4.64.09.63.07,1.28-.07,1.91-.1.48.2.96.69,1.06.07.02.14.02.22.02,4.32-.15,7.69-3.77,7.55-8.08-.07-2.18-1.05-4.22-2.7-5.64" style="fill:#009cde;"/><path id="Path_3" d="m11.93,29.56c-1.15,0-2.08-.93-2.08-2.08s.93-2.08,2.08-2.08,2.08.93,2.08,2.08h0c0,1.15-.93,2.08-2.08,2.08m0,.44c1.39,0,2.52-1.13,2.52-2.52,0-1.39-1.13-2.52-2.52-2.52-1.39,0-2.52,1.13-2.52,2.52h0c0,1.39,1.13,2.52,2.52,2.52" style="fill:#009cde;"/><path id="Path_4" d="m13,26.24c-.69-.6-1.73-.52-2.33.17-.22.26-.36.58-.39.92,0,.1.07.2.17.2.02,0,.03,0,.05,0,.63-.09,1.21.35,1.3.98.02.13.01.27-.01.4-.02.1.04.2.14.22.02,0,.03,0,.05,0,.91-.03,1.62-.79,1.59-1.7-.02-.46-.22-.89-.57-1.19" style="fill:#009cde;"/></svg>